<svg width="160" height="41" viewBox="0 0 160 41" fill="none" xmlns="http://www.w3.org/2000/svg">
<path fill-rule="evenodd" clip-rule="evenodd" d="M58.5728 21.0511C58.0618 20.5952 57.4486 20.2139 56.7385 19.9072C56.0263 19.6025 55.2225 19.3476 54.3229 19.1435C52.8761 18.7892 51.8082 18.4532 51.1216 18.1346C50.4349 17.8181 50.0942 17.3784 50.0942 16.8189C50.0942 16.362 50.2997 15.9742 50.7106 15.6555C51.1216 15.339 51.8529 15.1802 52.8995 15.1802C53.9492 15.1802 54.8605 15.3272 55.6334 15.6199C56.4063 15.9105 57.0313 16.2356 57.505 16.591L59.7907 13.426C58.9167 12.7682 57.9351 12.2735 56.8513 11.9397C55.7644 11.6091 54.4485 11.445 52.8995 11.445C52.0265 11.445 51.1588 11.5735 50.2997 11.8252C49.4373 12.0801 48.6633 12.442 47.9767 12.9129C47.29 13.3817 46.7353 13.9683 46.3105 14.6661C45.8857 15.365 45.6749 16.1578 45.6749 17.0468C45.6749 17.9131 45.8549 18.6563 46.2179 19.2785C46.5788 19.9028 47.0419 20.4354 47.603 20.8804C48.164 21.3222 48.7687 21.6754 49.4182 21.9271C50.0676 22.1842 50.6914 22.3862 51.2898 22.5385C52.2639 22.7664 53.0379 22.9835 53.6128 23.1877C54.1845 23.3875 54.6359 23.5928 54.9606 23.7947C55.2831 23.9989 55.495 24.2085 55.5961 24.4256C55.6962 24.6416 55.7462 24.8749 55.7462 25.1288C55.7462 25.7142 55.4588 26.1355 54.886 26.3872C54.3111 26.6421 53.5499 26.7674 52.6014 26.7674C51.5282 26.7674 50.5722 26.586 49.7365 26.2165C48.8997 25.8503 48.2077 25.3837 47.6594 24.8242L45 27.7601C45.7984 28.674 46.8599 29.3685 48.1821 29.8373C49.5044 30.3083 50.9906 30.5416 52.6376 30.5416C53.6617 30.5416 54.6284 30.4109 55.5397 30.1419C56.451 29.8751 57.2484 29.5014 57.9351 29.0185C58.6218 28.5378 59.1669 27.9459 59.5661 27.2459C59.9632 26.5471 60.1644 25.7672 60.1644 24.9009C60.1644 24.0378 60.026 23.2925 59.7524 22.6714C59.4778 22.0481 59.0838 21.508 58.5728 21.0511" fill="#00549E"/>
<path fill-rule="evenodd" clip-rule="evenodd" d="M71.3309 24.4004L66.3134 12.1624H61.2182L69.1203 29.8339L68.5592 31.2577C68.1343 32.3238 67.7296 33.0973 67.341 33.6061C66.9534 34.1159 66.4604 34.3611 65.8619 34.3611C65.4136 34.3611 65.0399 34.2618 64.7385 34.0716C64.4393 33.8815 64.1656 33.6817 63.9154 33.4797L61.9316 36.6426C62.4289 37.0736 63.0113 37.4085 63.6726 37.6515C64.3339 37.8924 65.1634 38.0134 66.1622 38.0134C67.3112 38.0134 68.2599 37.7606 69.0074 37.2518C69.7582 36.7431 70.3864 36.0906 70.8986 35.2891C71.4108 34.4897 71.841 33.619 72.1913 32.6771C72.5416 31.7373 72.8899 30.8785 73.2402 29.9884L80.5791 12.1624H75.7479L71.3309 24.4004Z" fill="#00549E"/>
<path fill-rule="evenodd" clip-rule="evenodd" d="M92.5575 11.6703C91.8581 11.6703 91.2342 11.7459 90.6859 11.9004C90.1365 12.0517 89.6436 12.2484 89.2071 12.4915C88.7695 12.7314 88.3958 12.9939 88.0828 13.2738C87.7719 13.5526 87.5026 13.8746 87.279 14.1285L87.1672 12.1619H82.8522V29.9583H87.3077V20.2497C87.3077 19.5906 87.4355 18.9736 87.6484 18.4009C87.8613 17.8293 88.1648 17.3269 88.5417 16.8936C88.9153 16.4635 89.3689 16.1275 89.8927 15.8822C90.4186 15.6445 90.9818 15.5235 91.5802 15.5235C92.5543 15.5235 93.3006 15.8346 93.9128 16.4581C94.525 17.0794 94.7816 17.9622 94.7816 19.1076V29.9583H99.2372V19.0687C99.2372 16.806 98.692 15.007 97.5454 13.6736C96.3977 12.3391 94.7539 11.6703 92.5575 11.6703Z" fill="#00549E"/>
<path fill-rule="evenodd" clip-rule="evenodd" d="M111.655 15.2223C110.942 15.2223 110.293 15.3459 109.726 15.5895C109.18 15.8246 108.708 16.1347 108.321 16.5111C107.954 16.8751 107.664 17.2966 107.461 17.7639C107.272 18.1948 107.163 18.5621 107.163 19.1643H115.775C115.775 18.571 115.683 18.2146 115.513 17.7648C115.328 17.2801 115.069 16.8535 114.744 16.4967C114.406 16.1292 113.971 15.8224 113.452 15.585C112.933 15.3444 112.329 15.2223 111.655 15.2223ZM112.03 30.5421C110.643 30.5421 109.357 30.299 108.21 29.8194C107.063 29.3373 106.074 28.6632 105.27 27.816C104.462 26.9716 103.833 25.9394 103.398 24.7479C102.963 23.5633 102.743 22.23 102.743 20.7852C102.743 19.4664 102.963 18.2291 103.398 17.1078C103.831 15.9858 104.448 14.9917 105.232 14.1531C106.013 13.3204 106.958 12.6537 108.041 12.1713C109.126 11.6906 110.342 11.4468 111.655 11.4468C113.247 11.4468 114.614 11.7484 115.717 12.3432C116.825 12.9394 117.727 13.7286 118.397 14.6886C119.098 15.6932 119.601 16.796 119.89 17.9664C120.214 19.2878 120.371 20.5095 120.371 21.7014V22.3719H107.201C107.201 23.0696 107.325 23.5854 107.631 24.1512C107.911 24.6735 108.278 25.1186 108.754 25.512C109.21 25.89 109.739 26.1849 110.326 26.3886C110.903 26.5893 111.49 26.691 112.069 26.691C112.919 26.691 113.668 26.6087 114.295 26.4462C114.928 26.2828 115.476 26.0896 115.924 25.872C116.365 25.6633 116.737 25.4332 117.03 25.188C117.314 24.947 117.534 24.7484 117.685 24.5976L120.081 27.3408C120.056 27.3668 120.015 27.4087 119.958 27.4664C119.85 27.5767 119.684 27.7447 119.461 27.9708C119.128 28.309 118.637 28.6742 118.002 29.0562C117.375 29.4332 116.557 29.7787 115.569 30.0831C114.59 30.3877 113.399 30.5421 112.03 30.5421Z" fill="#00549E"/>
<path fill-rule="evenodd" clip-rule="evenodd" d="M130.791 24.9774L126.073 12.1631H120.979L128.432 29.9583H132.924L140.34 12.1631H135.509L130.791 24.9774Z" fill="#00549E"/>
<path fill-rule="evenodd" clip-rule="evenodd" d="M150.564 15.3352C149.718 15.3352 148.974 15.5081 148.354 15.8491C147.732 16.1915 147.209 16.6402 146.801 17.1829C146.39 17.7261 146.082 18.3417 145.883 19.0126C145.683 19.6786 145.582 20.3391 145.582 20.9755C145.582 21.6375 145.683 22.3037 145.883 22.9555C146.084 23.6239 146.384 24.2236 146.801 24.7888C147.217 25.3513 147.739 25.8058 148.354 26.1397C148.974 26.4825 149.718 26.6563 150.564 26.6563C151.407 26.6563 152.15 26.4825 152.771 26.1397C153.389 25.8028 153.912 25.3483 154.326 24.7888C154.741 24.2243 155.041 23.6246 155.245 22.9555C155.442 22.2978 155.542 21.6316 155.542 20.9755C155.542 20.3451 155.442 19.6847 155.245 19.0126C155.044 18.341 154.735 17.7254 154.326 17.1829C153.919 16.6433 153.396 16.1946 152.771 15.8491C152.15 15.5081 151.407 15.3352 150.564 15.3352ZM150.564 30.5416C149.171 30.5416 147.88 30.2848 146.726 29.7784C145.567 29.273 144.565 28.5741 143.749 27.7012C142.928 26.831 142.279 25.8054 141.82 24.6529C141.36 23.5022 141.126 22.265 141.126 20.9755C141.126 19.6896 141.36 18.4523 141.82 17.2981C142.28 16.1438 142.929 15.1239 143.749 14.2669C144.566 13.4096 145.568 12.7174 146.726 12.2095C147.878 11.7031 149.169 11.4463 150.564 11.4463C151.958 11.4463 153.249 11.7031 154.4 12.2095C155.558 12.7172 156.56 13.4094 157.378 14.2669C158.195 15.1217 158.844 16.1416 159.308 17.2981C159.767 18.4516 160 19.6888 160 20.9755C160 22.2657 159.767 23.503 159.308 24.6529C158.846 25.8076 158.196 26.8332 157.378 27.7012C156.561 28.5743 155.559 29.2732 154.4 29.7784C153.247 30.2848 151.956 30.5416 150.564 30.5416Z" fill="#00549E"/>
<path fill-rule="evenodd" clip-rule="evenodd" d="M2.84842 18.4796C3.68994 18.976 4.60556 19.2274 5.51376 19.2608L5.51694 19.2619L15.6808 19.2727L10.638 10.3128L10.6327 10.3193C10.1532 9.53484 9.48212 8.85508 8.64166 8.35982C5.90012 6.74134 2.38056 7.69624 0.78326 10.4897C-0.81509 13.2843 0.111107 16.8612 2.84841 18.4796" fill="#00549E"/>
<path fill-rule="evenodd" clip-rule="evenodd" d="M12.1021 6.26084C12.1011 7.2514 12.3106 8.18477 12.7393 9.00485V9.00701L17.8428 17.9857L22.9496 9.05448V9.05232C23.3761 8.23657 23.6227 7.30319 23.6227 6.31478C23.627 3.08628 21.0424 0.456642 17.8714 0.442621C14.6984 0.42859 12.1074 3.03449 12.1021 6.26083" fill="#00549E"/>
<path fill-rule="evenodd" clip-rule="evenodd" d="M27.0484 8.35757C26.2058 8.85152 25.5346 9.53313 25.0519 10.3183L25.0498 10.3204L19.9581 19.2828L30.0918 19.3119L30.0896 19.3033C30.9958 19.2731 31.9093 19.0207 32.7498 18.5268C35.4957 16.9176 36.4442 13.3338 34.8701 10.5286C33.295 7.72126 29.7922 6.74953 27.0484 8.35758" fill="#00549E"/>
<path fill-rule="evenodd" clip-rule="evenodd" d="M32.8267 22.5123C31.9852 22.0159 31.0696 21.7644 30.1614 21.7299L30.1699 21.7234L20.0167 21.7029L25.0584 30.6628H25.0541C25.5326 31.5369 26.1994 32.1336 27.0388 32.6279C29.7803 34.2465 33.2967 33.2937 34.8939 30.5009C36.4933 27.706 35.564 24.1298 32.8267 22.5123" fill="#00549E"/>
<path fill-rule="evenodd" clip-rule="evenodd" d="M23.5479 34.7385C23.5489 33.748 23.3044 32.8147 22.8787 31.9957L22.8893 31.9989L17.8295 23.026L12.74 31.9547L12.7369 31.9515C12.3218 32.7596 12.0593 33.6973 12.0593 34.6856C12.055 37.9151 14.6225 40.5435 17.7946 40.5575C20.9687 40.5716 23.5426 37.9647 23.5479 34.7385Z" fill="#00549E"/>
<path fill-rule="evenodd" clip-rule="evenodd" d="M8.63171 32.6401C9.47491 32.1459 10.1465 31.4628 10.6295 30.6783L10.6317 30.6891L15.73 21.7357L5.59154 21.7077L5.59366 21.7033C4.69962 21.7411 3.77062 21.9785 2.92954 22.4727C0.181735 24.0839 -0.768446 27.6654 0.806722 30.4722C2.38295 33.2801 5.88603 34.248 8.63172 32.6401" fill="#00549E"/>
</svg>
